<svg width="90" height="90" xmlns="http://www.w3.org/2000/svg"><g data-name="WhatsApp"><circle data-name="back" fill="#25d366" cx="43.5" cy="43.5" r="42.5"/><g data-name="whatsApp" fill="#fff"><path d="M19.7 67.41l3.36-12.28A23.7 23.7 0 1143.6 67a23.67 23.67 0 01-11.33-2.88L19.7 67.41zm13.15-7.58l.72.42a19.59 19.59 0 0010 2.75A19.7 19.7 0 0057.5 29.37a19.5 19.5 0 00-13.92-5.78 19.71 19.71 0 00-16.7 30.18l.47.74-2 7.27 7.5-1.95z"/><path d="M55.54 48.94c-.15-.25-.54-.4-1.13-.69s-3.51-1.73-4-1.93-.94-.3-1.33.3-1.53 1.92-1.88 2.32-.69.44-1.28.15a16.21 16.21 0 01-4.76-2.94 18.13 18.13 0 01-3.3-4.1.86.86 0 01.26-1.21c.27-.27.59-.69.89-1a4.32 4.32 0 00.59-1 1.08 1.08 0 000-1c-.15-.29-1.33-3.21-1.82-4.39s-1-1-1.34-1h-1.13a2.17 2.17 0 00-1.58.74 6.66 6.66 0 00-2.07 4.94c0 2.92 2.12 5.73 2.41 6.13s4.18 6.37 10.12 8.94a35.85 35.85 0 003.38 1.25 8.15 8.15 0 003.73.23c1.14-.17 3.5-1.43 4-2.81a4.9 4.9 0 00.24-2.93z"/></g></g></svg>